<svg width="21" height="21" viewBox="0 0 21 21" fill="none" xmlns="http://www.w3.org/2000/svg">
<path d="M14.9337 8.51091C14.9337 8.43948 14.898 8.35912 14.8445 8.30555L14.398 7.85912C14.3445 7.80555 14.2641 7.76984 14.1927 7.76984C14.1212 7.76984 14.0409 7.80555 13.9873 7.85912L10.4784 11.3681L6.96946 7.85912C6.91589 7.80555 6.83553 7.76984 6.7641 7.76984C6.68375 7.76984 6.61232 7.80555 6.55875 7.85912L6.11232 8.30555C6.05875 8.35912 6.02303 8.43948 6.02303 8.51091C6.02303 8.58234 6.05875 8.66269 6.11232 8.71627L10.273 12.877C10.3266 12.9306 10.407 12.9663 10.4784 12.9663C10.5498 12.9663 10.6302 12.9306 10.6837 12.877L14.8445 8.71627C14.898 8.66269 14.9337 8.58234 14.9337 8.51091Z" fill="black"/>
</svg>
