<svg width="18" height="21" viewBox="0 0 18 21" fill="none" xmlns="http://www.w3.org/2000/svg">
<path d="M16.8125 4.60911L13.3304 1.12697C12.9174 0.714024 12.0915 0.368042 11.5 0.368042H1.50002C0.9085 0.368042 0.428589 0.847954 0.428589 1.43947V19.2966C0.428589 19.8881 0.9085 20.368 1.50002 20.368H16.5C17.0915 20.368 17.5714 19.8881 17.5714 19.2966V6.43947C17.5714 5.84795 17.2255 5.02206 16.8125 4.60911ZM11.8572 1.8859C12.0469 1.95286 12.2366 2.05331 12.3148 2.13144L15.8081 5.62474C15.8862 5.70286 15.9866 5.8926 16.0536 6.08233H11.8572V1.8859ZM16.1429 18.9395H1.85716V1.79661H10.4286V6.43947C10.4286 7.03099 10.9085 7.5109 11.5 7.5109H16.1429V18.9395ZM4.7143 9.29661V10.0109C4.7143 10.2118 4.87055 10.368 5.07145 10.368H12.9286C13.1295 10.368 13.2857 10.2118 13.2857 10.0109V9.29661C13.2857 9.09572 13.1295 8.93947 12.9286 8.93947H5.07145C4.87055 8.93947 4.7143 9.09572 4.7143 9.29661ZM12.9286 11.7966H5.07145C4.87055 11.7966 4.7143 11.9529 4.7143 12.1538V12.868C4.7143 13.0689 4.87055 13.2252 5.07145 13.2252H12.9286C13.1295 13.2252 13.2857 13.0689 13.2857 12.868V12.1538C13.2857 11.9529 13.1295 11.7966 12.9286 11.7966ZM12.9286 14.6538H5.07145C4.87055 14.6538 4.7143 14.81 4.7143 15.0109V15.7252C4.7143 15.9261 4.87055 16.0823 5.07145 16.0823H12.9286C13.1295 16.0823 13.2857 15.9261 13.2857 15.7252V15.0109C13.2857 14.81 13.1295 14.6538 12.9286 14.6538Z" fill="#272733"/>
</svg>
